<?xml version="1.0" encoding="UTF-8"?>
<svg xmlns="http://www.w3.org/2000/svg" xmlns:xlink="http://www.w3.org/1999/xlink" width="85px" height="85px" viewBox="0 0 85 85" version="1.1">
<g id="surface1">
<path style=" stroke:none;fill-rule:nonzero;fill:rgb(100%,100%,100%);fill-opacity:1;" d="M 65.214844 84.210938 C 62.667969 81.34375 61.042969 73.140625 61.128906 72.238281 C 61.515625 68.152344 66.53125 64.113281 69.269531 61.125 C 73.488281 56.523438 79.628906 47.542969 79.277344 35.058594 C 79.085938 28.160156 76.464844 21.191406 73.171875 16.347656 C 64.699219 3.890625 55.140625 1.742188 49.25 1.011719 C 43.359375 0.28125 37.652344 1.234375 32.511719 3.027344 C 21.742188 6.789062 16.800781 14.414062 15.953125 16.109375 C 14.117188 19.804688 13.140625 22.542969 12.863281 27.34375 C 12.609375 29.410156 12.535156 31.492188 12.636719 33.574219 C 12.5 38.300781 12.324219 44.863281 7.996094 47.207031 C 7.125 47.640625 6.417969 48.347656 5.992188 49.222656 C 4.957031 51.578125 6.984375 52.632812 8.242188 53.988281 C 9.03125 54.863281 9.597656 55.917969 9.886719 57.058594 C 10.03125 59.351562 10.355469 61.628906 10.847656 63.875 C 11.167969 65.457031 11.6875 66.992188 12.390625 68.441406 C 13.773438 71.054688 15.535156 72.359375 17.363281 73.027344 C 20.945312 74.335938 25.84375 74.800781 29.015625 73.941406 C 29.777344 73.738281 30.574219 74.136719 30.871094 74.867188 C 30.917969 74.988281 32.90625 80.160156 32.792969 84.210938 "/>
<path style=" stroke:none;fill-rule:nonzero;fill:rgb(58.431373%,79.607843%,92.156863%);fill-opacity:1;" d="M 55.441406 55.070312 C 54.980469 54.511719 54.554688 53.921875 54.164062 53.308594 C 54.066406 53.136719 53.984375 52.960938 53.921875 52.773438 C 53.863281 52.582031 53.828125 52.386719 53.816406 52.1875 C 53.816406 50.480469 53.828125 49.492188 53.828125 48.289062 C 55.492188 48.289062 60.046875 48.269531 60.519531 48.269531 C 60.882812 47.890625 63.242188 45.210938 64.179688 44.0625 L 65.113281 42.910156 L 65.898438 42.183594 C 67.558594 40.644531 69.15625 39.046875 70.699219 37.390625 C 70.699219 34.683594 70.519531 28.527344 70.519531 26.269531 L 70.519531 24.722656 L 69.726562 23.621094 C 68.660156 22.136719 66 18.4375 64.914062 16.925781 L 64.238281 15.980469 L 62.703125 15.179688 C 61.5 14.550781 55.726562 11.445312 54.835938 10.976562 L 53.5625 10.304688 L 52.023438 10.464844 C 48.933594 10.78125 35.425781 12.269531 33.101562 12.539062 L 31.886719 12.679688 L 30.660156 13.886719 C 28.554688 15.945312 26.328125 18.199219 24.304688 20.242188 L 23.078125 21.476562 L 23.035156 22.527344 C 23 23.421875 22.898438 26.460938 22.855469 27.808594 L 22.796875 29.546875 L 23.445312 30.65625 L 26.878906 36.535156 C 26.921875 36.621094 26.980469 36.699219 27.058594 36.757812 C 27.175781 36.8125 27.300781 36.835938 27.429688 36.835938 C 29.488281 37.1875 30.644531 37.378906 32.898438 37.574219 C 33.5625 38.734375 34.226562 39.894531 34.894531 41.054688 C 34.953125 41.171875 35.027344 41.277344 35.117188 41.371094 C 35.296875 41.515625 35.511719 41.613281 35.738281 41.648438 C 38.652344 42.355469 42.515625 43.300781 44.828125 43.664062 C 45.417969 44.945312 47.6875 49.773438 48.316406 51.242188 C 48.605469 52.394531 49.125 54.613281 49.378906 55.890625 "/>
<path style=" stroke:none;fill-rule:nonzero;fill:rgb(100%,100%,100%);fill-opacity:1;" d="M 42.289062 21.570312 C 42.289062 25.3125 42.296875 30.183594 42.296875 33.738281 C 45.226562 33.714844 51 33.699219 54.496094 33.683594 C 54.496094 30.148438 54.472656 25.296875 54.472656 21.539062 C 54.039062 21.539062 45.109375 21.546875 42.289062 21.570312 Z M 42.289062 21.570312 "/>
<path style=" stroke:none;fill-rule:nonzero;fill:rgb(12.941176%,9.019608%,8.235294%);fill-opacity:1;" d="M 44.820312 24.402344 C 44.820312 26.433594 44.824219 28.945312 44.824219 30.890625 C 44.824219 30.976562 44.859375 31.058594 44.917969 31.117188 C 44.976562 31.175781 45.058594 31.207031 45.144531 31.207031 C 46.835938 31.195312 49.710938 31.1875 51.648438 31.179688 C 51.730469 31.179688 51.8125 31.144531 51.871094 31.085938 C 51.929688 31.027344 51.964844 30.945312 51.964844 30.863281 C 51.964844 28.929688 51.953125 26.421875 51.953125 24.386719 C 51.953125 24.300781 51.917969 24.21875 51.859375 24.160156 C 51.800781 24.101562 51.71875 24.070312 51.636719 24.070312 C 50.511719 24.070312 46.792969 24.074219 45.132812 24.085938 C 44.957031 24.085938 44.816406 24.226562 44.820312 24.402344 Z M 44.820312 24.402344 "/>
<path style=" stroke:none;fill-rule:nonzero;fill:rgb(12.941176%,9.019608%,8.235294%);fill-opacity:1;" d="M 65.753906 83.671875 C 65.570312 83.460938 65.402344 83.238281 65.253906 83 C 65.042969 82.671875 64.851562 82.335938 64.675781 81.992188 C 64.3125 81.28125 63.996094 80.546875 63.726562 79.796875 C 63.164062 78.238281 62.703125 76.640625 62.34375 75.019531 C 62.207031 74.40625 62.082031 73.789062 61.980469 73.167969 C 61.960938 73.054688 61.945312 72.941406 61.929688 72.828125 C 61.902344 72.644531 61.949219 73.003906 61.929688 72.832031 C 61.925781 72.785156 61.917969 72.742188 61.914062 72.695312 C 61.894531 72.558594 61.886719 72.417969 61.890625 72.28125 C 61.964844 71.484375 62.210938 70.71875 62.601562 70.023438 C 63.0625 69.140625 63.609375 68.3125 64.242188 67.546875 C 66.503906 64.742188 69.304688 62.445312 71.554688 59.625 C 73.734375 56.914062 75.550781 53.929688 76.957031 50.746094 C 78.691406 46.796875 79.71875 42.570312 79.992188 38.261719 C 80.269531 33.304688 79.507812 28.347656 77.757812 23.699219 C 76.089844 19.289062 73.644531 15.207031 70.539062 11.65625 C 67.941406 8.589844 64.828125 6 61.335938 4.007812 C 55.527344 0.765625 48.550781 -0.464844 41.957031 0.15625 C 33.496094 0.953125 25.148438 4.414062 19.195312 10.578125 C 17.707031 12.046875 16.429688 13.714844 15.394531 15.535156 C 14.542969 17.121094 13.832031 18.78125 13.273438 20.496094 C 12.648438 22.519531 12.265625 24.617188 12.136719 26.734375 C 12.046875 27.964844 11.894531 29.183594 11.851562 30.417969 C 11.808594 31.640625 11.894531 32.859375 11.859375 34.082031 C 11.839844 35.875 11.707031 37.667969 11.46875 39.449219 C 11.203125 41.167969 10.773438 42.921875 9.84375 44.410156 C 9.441406 45.070312 8.921875 45.648438 8.304688 46.113281 C 7.515625 46.695312 6.628906 47.066406 5.980469 47.835938 C 5.277344 48.542969 4.902344 49.507812 4.941406 50.5 C 4.980469 51.496094 5.433594 52.429688 6.1875 53.074219 C 6.789062 53.699219 7.496094 54.222656 8.023438 54.910156 C 8.660156 55.699219 9.054688 56.652344 9.160156 57.660156 C 9.332031 60.082031 9.710938 62.484375 10.292969 64.84375 C 10.878906 67.175781 11.773438 69.433594 13.402344 71.242188 C 14.714844 72.703125 16.386719 73.5625 18.242188 74.121094 C 20.417969 74.765625 22.675781 75.109375 24.945312 75.140625 C 26.011719 75.15625 27.074219 75.082031 28.125 74.910156 C 28.53125 74.84375 28.953125 74.679688 29.359375 74.652344 C 29.523438 74.640625 29.6875 74.679688 29.828125 74.765625 C 29.902344 74.808594 29.96875 74.859375 30.023438 74.925781 C 30.046875 74.953125 30.226562 75.265625 30.136719 75.074219 C 30.578125 76.144531 30.929688 77.246094 31.183594 78.375 C 31.738281 80.269531 32.023438 82.234375 32.027344 84.210938 C 32.003906 85.195312 33.535156 85.195312 33.558594 84.210938 C 33.550781 82.097656 33.25 79.996094 32.660156 77.96875 C 32.375 76.851562 32.027344 75.753906 31.613281 74.675781 C 31.253906 73.695312 30.289062 73.066406 29.242188 73.132812 C 28.769531 73.175781 28.304688 73.335938 27.832031 73.417969 C 27.34375 73.5 26.851562 73.554688 26.359375 73.582031 C 24.199219 73.695312 22.03125 73.496094 19.925781 72.988281 C 18.121094 72.5625 16.359375 71.984375 14.988281 70.6875 C 13.308594 69.09375 12.425781 66.941406 11.84375 64.738281 C 11.253906 62.457031 10.871094 60.125 10.695312 57.769531 C 10.679688 57.285156 10.601562 56.804688 10.460938 56.339844 C 10.273438 55.769531 10.023438 55.21875 9.71875 54.699219 C 9.203125 53.894531 8.570312 53.171875 7.84375 52.550781 C 7.3125 52.054688 6.695312 51.515625 6.515625 50.824219 C 6.304688 50.019531 6.804688 49.117188 7.402344 48.554688 C 8.0625 47.933594 8.933594 47.589844 9.625 47 C 10.277344 46.433594 10.832031 45.757812 11.265625 45.007812 C 13.121094 41.871094 13.265625 37.933594 13.378906 34.386719 C 13.414062 33.269531 13.34375 32.152344 13.363281 31.03125 C 13.386719 29.792969 13.511719 28.574219 13.625 27.34375 C 13.730469 26.199219 13.800781 25.066406 14 23.9375 C 14.164062 22.984375 14.390625 22.046875 14.675781 21.125 C 15.394531 18.714844 16.5 16.441406 17.949219 14.390625 C 18.027344 14.289062 18.101562 14.1875 18.179688 14.085938 L 18.300781 13.925781 C 18.199219 14.058594 18.339844 13.878906 18.347656 13.863281 C 18.542969 13.617188 18.742188 13.371094 18.949219 13.128906 C 19.375 12.621094 19.816406 12.132812 20.277344 11.65625 C 21.410156 10.480469 22.636719 9.398438 23.949219 8.417969 C 27.386719 5.898438 31.261719 4.039062 35.378906 2.929688 C 40.027344 1.597656 44.894531 1.226562 49.691406 1.832031 C 49.511719 1.808594 49.882812 1.859375 49.945312 1.871094 C 50.078125 1.886719 50.210938 1.90625 50.34375 1.929688 C 50.644531 1.972656 50.941406 2.023438 51.242188 2.074219 C 51.828125 2.179688 52.414062 2.300781 52.996094 2.433594 C 54.363281 2.746094 55.703125 3.15625 57.011719 3.65625 C 60.148438 4.882812 63.050781 6.644531 65.59375 8.855469 C 69.015625 11.8125 71.890625 15.351562 74.082031 19.304688 C 76.402344 23.484375 77.859375 28.082031 78.371094 32.832031 C 78.808594 37.324219 78.351562 41.863281 77.027344 46.183594 C 75.9375 49.71875 74.324219 53.074219 72.238281 56.136719 C 71.429688 57.335938 70.550781 58.492188 69.609375 59.589844 C 68.484375 60.90625 67.242188 62.113281 66.023438 63.339844 C 64.550781 64.828125 63.085938 66.363281 61.9375 68.125 C 61.136719 69.359375 60.253906 71.011719 60.371094 72.539062 C 60.492188 73.722656 60.707031 74.890625 61.015625 76.039062 C 61.390625 77.652344 61.878906 79.238281 62.472656 80.78125 C 63.027344 82.191406 63.667969 83.605469 64.675781 84.75 C 65.324219 85.492188 66.402344 84.40625 65.753906 83.671875 Z M 65.753906 83.671875 "/>
<path style=" stroke:none;fill-rule:nonzero;fill:rgb(12.941176%,9.019608%,8.235294%);fill-opacity:1;" d="M 41.523438 21.570312 C 41.523438 25.628906 41.53125 29.683594 41.53125 33.738281 C 41.539062 34.160156 41.878906 34.5 42.296875 34.503906 C 46.363281 34.46875 50.429688 34.464844 54.496094 34.449219 C 54.914062 34.445312 55.253906 34.105469 55.261719 33.683594 C 55.261719 29.636719 55.238281 25.585938 55.238281 21.539062 C 55.230469 21.117188 54.894531 20.78125 54.472656 20.773438 C 51.269531 20.773438 48.066406 20.78125 44.863281 20.792969 C 44.003906 20.796875 43.144531 20.800781 42.285156 20.808594 C 41.300781 20.8125 41.300781 22.34375 42.285156 22.335938 C 45.894531 22.304688 49.507812 22.308594 53.117188 22.304688 L 54.472656 22.300781 L 53.707031 21.539062 C 53.707031 25.585938 53.730469 29.636719 53.730469 33.683594 L 54.496094 32.917969 C 50.425781 32.933594 46.359375 32.9375 42.296875 32.976562 L 43.058594 33.738281 C 43.058594 29.683594 43.050781 25.625 43.050781 21.570312 C 43.050781 20.585938 41.523438 20.585938 41.523438 21.570312 Z M 41.523438 21.570312 "/>
<path style=" stroke:none;fill-rule:nonzero;fill:rgb(12.941176%,9.019608%,8.235294%);fill-opacity:1;" d="M 22.273438 22.527344 C 22.199219 24.289062 22.148438 26.046875 22.089844 27.808594 C 22.089844 28.230469 22.433594 28.574219 22.855469 28.574219 C 23.277344 28.574219 23.617188 28.230469 23.617188 27.808594 C 23.679688 26.046875 23.730469 24.289062 23.800781 22.527344 C 23.800781 22.105469 23.457031 21.761719 23.035156 21.761719 C 22.613281 21.761719 22.273438 22.105469 22.273438 22.527344 Z M 22.273438 22.527344 "/>
<path style=" stroke:none;fill-rule:nonzero;fill:rgb(12.941176%,9.019608%,8.235294%);fill-opacity:1;" d="M 22.785156 31.042969 C 23.902344 32.957031 25.011719 34.875 26.136719 36.785156 C 26.355469 37.238281 26.796875 37.542969 27.300781 37.585938 C 27.761719 37.65625 28.21875 37.742188 28.679688 37.816406 C 29.605469 37.964844 30.539062 38.097656 31.46875 38.199219 C 31.890625 38.195312 32.230469 37.855469 32.234375 37.433594 C 32.226562 37.015625 31.890625 36.679688 31.46875 36.671875 C 30.800781 36.597656 30.132812 36.507812 29.464844 36.402344 C 29.117188 36.347656 28.769531 36.292969 28.425781 36.234375 C 28.03125 36.203125 27.640625 36.132812 27.261719 36.023438 L 27.597656 36.21875 C 27.445312 36.027344 27.320312 35.820312 27.214844 35.601562 L 26.816406 34.917969 L 25.898438 33.347656 L 24.105469 30.269531 C 23.609375 29.421875 22.285156 30.191406 22.785156 31.042969 Z M 22.785156 31.042969 "/>
<path style=" stroke:none;fill-rule:nonzero;fill:rgb(12.941176%,9.019608%,8.235294%);fill-opacity:1;" d="M 32.679688 38.734375 C 33.199219 39.636719 33.699219 40.546875 34.234375 41.441406 C 34.453125 41.847656 34.820312 42.15625 35.257812 42.304688 C 35.660156 42.445312 36.09375 42.523438 36.511719 42.625 C 38.332031 43.066406 40.15625 43.503906 41.988281 43.898438 C 42.949219 44.105469 43.359375 42.628906 42.394531 42.425781 C 40.699219 42.058594 39.007812 41.65625 37.320312 41.25 L 36.132812 40.960938 C 35.980469 40.941406 35.828125 40.902344 35.6875 40.84375 C 35.578125 40.738281 35.492188 40.609375 35.4375 40.46875 L 34 37.960938 C 33.511719 37.109375 32.1875 37.878906 32.679688 38.734375 Z M 32.679688 38.734375 "/>
<path style=" stroke:none;fill-rule:nonzero;fill:rgb(12.941176%,9.019608%,8.235294%);fill-opacity:1;" d="M 44.285156 44.304688 C 44.960938 45.757812 45.640625 47.207031 46.308594 48.660156 C 46.644531 49.382812 46.980469 50.105469 47.304688 50.832031 C 47.371094 50.972656 47.433594 51.117188 47.496094 51.257812 C 47.523438 51.3125 47.546875 51.371094 47.574219 51.429688 C 47.585938 51.464844 47.636719 51.617188 47.621094 51.554688 C 47.6875 51.832031 47.816406 52.398438 47.90625 52.785156 C 48.167969 53.882812 48.421875 54.984375 48.648438 56.09375 C 48.761719 56.496094 49.179688 56.734375 49.585938 56.625 C 49.988281 56.507812 50.222656 56.089844 50.121094 55.6875 C 49.921875 54.695312 49.695312 53.707031 49.464844 52.722656 C 49.308594 51.925781 49.078125 51.148438 48.777344 50.394531 C 48.089844 48.851562 47.371094 47.324219 46.660156 45.792969 C 46.308594 45.039062 45.960938 44.285156 45.609375 43.53125 C 45.394531 43.171875 44.929688 43.050781 44.5625 43.257812 C 44.207031 43.476562 44.085938 43.9375 44.289062 44.304688 Z M 44.285156 44.304688 "/>
<path style=" stroke:none;fill-rule:nonzero;fill:rgb(12.941176%,9.019608%,8.235294%);fill-opacity:1;" d="M 53.824219 49.054688 C 55.632812 49.054688 57.4375 49.046875 59.242188 49.039062 C 59.820312 49.039062 60.679688 49.1875 61.117188 48.75 C 61.644531 48.222656 62.117188 47.628906 62.609375 47.070312 C 63.320312 46.257812 64.035156 45.441406 64.71875 44.601562 C 65.003906 44.296875 65.003906 43.824219 64.71875 43.519531 C 64.417969 43.226562 63.9375 43.226562 63.636719 43.519531 C 62.464844 44.957031 61.25 46.382812 59.976562 47.730469 L 60.519531 47.507812 C 58.289062 47.507812 56.058594 47.527344 53.828125 47.527344 C 52.84375 47.527344 52.839844 49.054688 53.828125 49.054688 Z M 53.824219 49.054688 "/>
<path style=" stroke:none;fill-rule:nonzero;fill:rgb(12.941176%,9.019608%,8.235294%);fill-opacity:1;" d="M 66.4375 42.722656 C 67.617188 41.628906 68.765625 40.503906 69.890625 39.351562 C 70.167969 39.0625 70.449219 38.773438 70.722656 38.480469 C 71.023438 38.164062 71.433594 37.851562 71.464844 37.390625 C 71.492188 36.953125 71.460938 36.5 71.453125 36.058594 C 71.425781 33.804688 71.367188 31.550781 71.324219 29.300781 C 71.304688 28.289062 71.28125 27.28125 71.28125 26.269531 C 71.28125 25.285156 69.753906 25.285156 69.753906 26.269531 C 69.753906 29.976562 69.933594 33.683594 69.933594 37.390625 L 70.15625 36.847656 C 68.617188 38.503906 67.015625 40.101562 65.355469 41.640625 C 64.632812 42.3125 65.714844 43.394531 66.4375 42.726562 Z M 66.4375 42.722656 "/>
<path style=" stroke:none;fill-rule:nonzero;fill:rgb(12.941176%,9.019608%,8.235294%);fill-opacity:1;" d="M 33.101562 13.304688 C 35.273438 13.050781 37.449219 12.816406 39.621094 12.574219 C 42.648438 12.242188 45.675781 11.910156 48.707031 11.582031 C 49.8125 11.460938 50.917969 11.339844 52.023438 11.226562 C 52.441406 11.214844 52.777344 10.878906 52.789062 10.460938 C 52.785156 10.042969 52.445312 9.703125 52.023438 9.699219 C 49.667969 9.941406 47.3125 10.203125 44.957031 10.460938 C 41.980469 10.785156 39.003906 11.113281 36.027344 11.445312 C 35.054688 11.554688 34.078125 11.660156 33.101562 11.773438 C 32.6875 11.789062 32.351562 12.121094 32.339844 12.539062 C 32.339844 12.960938 32.683594 13.300781 33.101562 13.304688 Z M 33.101562 13.304688 "/>
<path style=" stroke:none;fill-rule:nonzero;fill:rgb(12.941176%,9.019608%,8.235294%);fill-opacity:1;" d="M 53.0625 48.289062 C 53.0625 49.523438 53.050781 50.753906 53.050781 51.988281 C 53.050781 53.410156 54.035156 54.570312 54.898438 55.613281 C 55.199219 55.910156 55.683594 55.910156 55.980469 55.613281 C 56.269531 55.308594 56.269531 54.832031 55.980469 54.53125 C 55.578125 54.035156 55.203125 53.515625 54.859375 52.972656 C 54.738281 52.789062 54.652344 52.582031 54.605469 52.363281 C 54.59375 52.308594 54.582031 52.253906 54.574219 52.195312 C 54.582031 52.261719 54.582031 52.242188 54.582031 52.1875 C 54.582031 51.996094 54.582031 51.800781 54.582031 51.609375 C 54.582031 50.503906 54.589844 49.398438 54.589844 48.289062 C 54.589844 47.304688 53.0625 47.304688 53.0625 48.289062 Z M 53.0625 48.289062 "/>
<path style=" stroke:none;fill-rule:nonzero;fill:rgb(12.941176%,9.019608%,8.235294%);fill-opacity:1;" d="M 54.449219 11.636719 C 57.082031 13.023438 59.683594 14.460938 62.316406 15.839844 C 63.1875 16.292969 63.960938 14.976562 63.089844 14.519531 C 60.453125 13.140625 57.851562 11.703125 55.222656 10.316406 C 54.351562 9.855469 53.578125 11.175781 54.449219 11.636719 Z M 54.449219 11.636719 "/>
<path style=" stroke:none;fill-rule:nonzero;fill:rgb(12.941176%,9.019608%,8.235294%);fill-opacity:1;" d="M 64.257812 17.3125 C 65.855469 19.546875 67.460938 21.777344 69.066406 24.007812 C 69.285156 24.359375 69.746094 24.480469 70.113281 24.28125 C 70.472656 24.066406 70.597656 23.601562 70.386719 23.234375 C 68.785156 21.003906 67.179688 18.773438 65.578125 16.542969 C 65.355469 16.1875 64.898438 16.066406 64.53125 16.265625 C 64.167969 16.484375 64.046875 16.949219 64.257812 17.3125 Z M 64.257812 17.3125 "/>
<path style=" stroke:none;fill-rule:nonzero;fill:rgb(12.941176%,9.019608%,8.235294%);fill-opacity:1;" d="M 42.976562 19.988281 C 42.976562 20.453125 42.988281 20.921875 42.988281 21.386719 C 42.988281 21.589844 43.066406 21.785156 43.210938 21.929688 C 43.507812 22.226562 43.992188 22.226562 44.289062 21.929688 C 44.429688 21.785156 44.511719 21.589844 44.511719 21.386719 C 44.511719 20.921875 44.503906 20.453125 44.503906 19.988281 C 44.5 19.785156 44.421875 19.589844 44.28125 19.445312 C 43.984375 19.148438 43.5 19.148438 43.199219 19.445312 C 43.058594 19.589844 42.980469 19.785156 42.976562 19.988281 Z M 42.976562 19.988281 "/>
<path style=" stroke:none;fill-rule:nonzero;fill:rgb(12.941176%,9.019608%,8.235294%);fill-opacity:1;" d="M 46.019531 19.988281 C 46.019531 20.453125 46.027344 20.921875 46.027344 21.386719 C 46.03125 21.589844 46.109375 21.785156 46.25 21.929688 C 46.546875 22.226562 47.03125 22.226562 47.332031 21.929688 C 47.472656 21.785156 47.550781 21.589844 47.554688 21.386719 C 47.554688 20.921875 47.546875 20.453125 47.546875 19.988281 C 47.542969 19.785156 47.464844 19.589844 47.320312 19.445312 C 47.023438 19.148438 46.539062 19.148438 46.242188 19.445312 C 46.101562 19.589844 46.019531 19.785156 46.019531 19.988281 Z M 46.019531 19.988281 "/>
<path style=" stroke:none;fill-rule:nonzero;fill:rgb(12.941176%,9.019608%,8.235294%);fill-opacity:1;" d="M 49.058594 19.988281 C 49.058594 20.453125 49.066406 20.921875 49.066406 21.386719 C 49.070312 21.589844 49.148438 21.785156 49.292969 21.929688 C 49.589844 22.226562 50.074219 22.226562 50.371094 21.929688 C 50.511719 21.785156 50.59375 21.589844 50.59375 21.386719 C 50.59375 20.921875 50.585938 20.453125 50.585938 19.988281 C 50.582031 19.785156 50.503906 19.589844 50.363281 19.445312 C 50.0625 19.148438 49.582031 19.148438 49.28125 19.445312 C 49.140625 19.589844 49.0625 19.785156 49.058594 19.988281 Z M 49.058594 19.988281 "/>
<path style=" stroke:none;fill-rule:nonzero;fill:rgb(12.941176%,9.019608%,8.235294%);fill-opacity:1;" d="M 52.101562 19.988281 C 52.101562 20.453125 52.109375 20.921875 52.109375 21.386719 C 52.109375 21.589844 52.191406 21.785156 52.332031 21.929688 C 52.628906 22.226562 53.113281 22.226562 53.414062 21.929688 C 53.554688 21.785156 53.632812 21.589844 53.636719 21.386719 C 53.636719 20.921875 53.625 20.453125 53.625 19.988281 C 53.625 19.785156 53.542969 19.589844 53.402344 19.445312 C 53.105469 19.148438 52.621094 19.148438 52.324219 19.445312 C 52.183594 19.589844 52.101562 19.785156 52.101562 19.988281 Z M 52.101562 19.988281 "/>
<path style=" stroke:none;fill-rule:nonzero;fill:rgb(12.941176%,9.019608%,8.235294%);fill-opacity:1;" d="M 42.976562 34.050781 C 42.976562 34.519531 42.988281 34.984375 42.988281 35.453125 C 42.988281 35.652344 43.070312 35.847656 43.210938 35.992188 C 43.507812 36.292969 43.992188 36.292969 44.289062 35.992188 C 44.429688 35.847656 44.511719 35.652344 44.511719 35.453125 C 44.511719 34.984375 44.503906 34.515625 44.503906 34.050781 C 44.5 33.847656 44.421875 33.652344 44.28125 33.507812 C 43.984375 33.210938 43.5 33.210938 43.199219 33.507812 C 43.058594 33.65625 42.980469 33.847656 42.976562 34.050781 Z M 42.976562 34.050781 "/>
<path style=" stroke:none;fill-rule:nonzero;fill:rgb(12.941176%,9.019608%,8.235294%);fill-opacity:1;" d="M 46.019531 34.050781 C 46.019531 34.519531 46.027344 34.984375 46.027344 35.453125 C 46.03125 35.652344 46.109375 35.847656 46.25 35.992188 C 46.546875 36.292969 47.03125 36.292969 47.332031 35.992188 C 47.472656 35.847656 47.550781 35.652344 47.554688 35.453125 C 47.554688 34.984375 47.546875 34.515625 47.546875 34.050781 C 47.542969 33.847656 47.464844 33.652344 47.320312 33.507812 C 47.023438 33.210938 46.539062 33.210938 46.242188 33.507812 C 46.101562 33.652344 46.019531 33.847656 46.019531 34.050781 Z M 46.019531 34.050781 "/>
<path style=" stroke:none;fill-rule:nonzero;fill:rgb(12.941176%,9.019608%,8.235294%);fill-opacity:1;" d="M 49.058594 34.050781 C 49.058594 34.519531 49.066406 34.984375 49.066406 35.453125 C 49.070312 35.652344 49.148438 35.847656 49.292969 35.992188 C 49.589844 36.292969 50.074219 36.292969 50.371094 35.992188 C 50.511719 35.847656 50.59375 35.652344 50.59375 35.453125 C 50.59375 34.984375 50.585938 34.515625 50.585938 34.050781 C 50.582031 33.847656 50.503906 33.652344 50.363281 33.507812 C 50.0625 33.210938 49.582031 33.210938 49.28125 33.507812 C 49.140625 33.65625 49.0625 33.847656 49.058594 34.050781 Z M 49.058594 34.050781 "/>
<path style=" stroke:none;fill-rule:nonzero;fill:rgb(12.941176%,9.019608%,8.235294%);fill-opacity:1;" d="M 52.101562 34.050781 C 52.101562 34.519531 52.109375 34.984375 52.109375 35.453125 C 52.113281 35.652344 52.191406 35.847656 52.332031 35.992188 C 52.628906 36.292969 53.113281 36.292969 53.414062 35.992188 C 53.554688 35.847656 53.632812 35.652344 53.636719 35.453125 C 53.636719 34.984375 53.625 34.515625 53.625 34.050781 C 53.625 33.847656 53.542969 33.652344 53.402344 33.507812 C 53.105469 33.210938 52.621094 33.210938 52.324219 33.507812 C 52.183594 33.65625 52.101562 33.847656 52.101562 34.050781 Z M 52.101562 34.050781 "/>
<path style=" stroke:none;fill-rule:nonzero;fill:rgb(12.941176%,9.019608%,8.235294%);fill-opacity:1;" d="M 56.039062 22.390625 C 55.574219 22.390625 55.105469 22.398438 54.640625 22.398438 C 54.4375 22.402344 54.242188 22.480469 54.097656 22.621094 C 53.800781 22.921875 53.800781 23.40625 54.097656 23.703125 C 54.242188 23.84375 54.4375 23.921875 54.640625 23.925781 C 55.105469 23.925781 55.574219 23.917969 56.039062 23.917969 C 56.242188 23.914062 56.4375 23.835938 56.582031 23.695312 C 56.878906 23.394531 56.878906 22.910156 56.582031 22.613281 C 56.4375 22.472656 56.242188 22.394531 56.039062 22.390625 Z M 56.039062 22.390625 "/>
<path style=" stroke:none;fill-rule:nonzero;fill:rgb(12.941176%,9.019608%,8.235294%);fill-opacity:1;" d="M 56.039062 25.429688 C 55.574219 25.429688 55.105469 25.441406 54.640625 25.441406 C 54.4375 25.441406 54.242188 25.523438 54.097656 25.664062 C 53.800781 25.960938 53.800781 26.445312 54.097656 26.742188 C 54.242188 26.882812 54.4375 26.964844 54.640625 26.964844 C 55.105469 26.964844 55.574219 26.957031 56.039062 26.957031 C 56.242188 26.957031 56.4375 26.875 56.582031 26.734375 C 56.878906 26.4375 56.878906 25.953125 56.582031 25.652344 C 56.4375 25.511719 56.242188 25.433594 56.039062 25.429688 Z M 56.039062 25.429688 "/>
<path style=" stroke:none;fill-rule:nonzero;fill:rgb(12.941176%,9.019608%,8.235294%);fill-opacity:1;" d="M 56.039062 28.472656 C 55.574219 28.472656 55.105469 28.480469 54.640625 28.480469 C 54.4375 28.484375 54.242188 28.5625 54.097656 28.703125 C 53.800781 29.003906 53.800781 29.484375 54.097656 29.785156 C 54.242188 29.925781 54.4375 30.003906 54.640625 30.007812 C 55.105469 30.007812 55.574219 30 56.039062 30 C 56.242188 29.996094 56.4375 29.917969 56.582031 29.773438 C 56.878906 29.476562 56.878906 28.992188 56.582031 28.695312 C 56.4375 28.554688 56.242188 28.472656 56.039062 28.472656 Z M 56.039062 28.472656 "/>
<path style=" stroke:none;fill-rule:nonzero;fill:rgb(12.941176%,9.019608%,8.235294%);fill-opacity:1;" d="M 56.039062 31.511719 C 55.574219 31.511719 55.105469 31.519531 54.640625 31.519531 C 54.4375 31.523438 54.242188 31.601562 54.097656 31.746094 C 53.800781 32.042969 53.800781 32.527344 54.097656 32.824219 C 54.242188 32.964844 54.4375 33.046875 54.640625 33.046875 C 55.105469 33.046875 55.574219 33.039062 56.039062 33.039062 C 56.242188 33.035156 56.4375 32.957031 56.582031 32.816406 C 56.878906 32.519531 56.878906 32.035156 56.582031 31.734375 C 56.4375 31.59375 56.242188 31.515625 56.039062 31.511719 Z M 56.039062 31.511719 "/>
<path style=" stroke:none;fill-rule:nonzero;fill:rgb(12.941176%,9.019608%,8.235294%);fill-opacity:1;" d="M 41.976562 22.390625 C 41.507812 22.390625 41.042969 22.398438 40.574219 22.398438 C 40.375 22.402344 40.179688 22.480469 40.035156 22.621094 C 39.734375 22.921875 39.734375 23.40625 40.035156 23.703125 C 40.179688 23.84375 40.375 23.925781 40.574219 23.925781 C 41.042969 23.925781 41.511719 23.917969 41.976562 23.917969 C 42.179688 23.914062 42.375 23.835938 42.519531 23.695312 C 42.816406 23.394531 42.816406 22.910156 42.519531 22.613281 C 42.371094 22.472656 42.179688 22.394531 41.976562 22.390625 Z M 41.976562 22.390625 "/>
<path style=" stroke:none;fill-rule:nonzero;fill:rgb(12.941176%,9.019608%,8.235294%);fill-opacity:1;" d="M 41.976562 25.429688 C 41.507812 25.429688 41.042969 25.441406 40.574219 25.441406 C 40.375 25.441406 40.179688 25.523438 40.035156 25.664062 C 39.734375 25.960938 39.734375 26.445312 40.035156 26.742188 C 40.179688 26.882812 40.375 26.964844 40.574219 26.964844 C 41.042969 26.964844 41.511719 26.957031 41.976562 26.957031 C 42.179688 26.957031 42.375 26.875 42.519531 26.734375 C 42.816406 26.4375 42.816406 25.953125 42.519531 25.652344 C 42.375 25.511719 42.179688 25.433594 41.976562 25.429688 Z M 41.976562 25.429688 "/>
<path style=" stroke:none;fill-rule:nonzero;fill:rgb(12.941176%,9.019608%,8.235294%);fill-opacity:1;" d="M 41.976562 28.472656 C 41.507812 28.472656 41.042969 28.480469 40.574219 28.480469 C 40.375 28.484375 40.179688 28.5625 40.035156 28.703125 C 39.734375 29.003906 39.734375 29.484375 40.035156 29.785156 C 40.179688 29.925781 40.375 30.003906 40.574219 30.007812 C 41.042969 30.007812 41.511719 30 41.976562 30 C 42.179688 29.996094 42.375 29.917969 42.519531 29.773438 C 42.816406 29.476562 42.816406 28.992188 42.519531 28.695312 C 42.371094 28.554688 42.179688 28.472656 41.976562 28.472656 Z M 41.976562 28.472656 "/>
<path style=" stroke:none;fill-rule:nonzero;fill:rgb(12.941176%,9.019608%,8.235294%);fill-opacity:1;" d="M 41.976562 31.511719 C 41.507812 31.511719 41.042969 31.519531 40.574219 31.519531 C 40.375 31.523438 40.179688 31.601562 40.035156 31.746094 C 39.734375 32.042969 39.734375 32.527344 40.035156 32.824219 C 40.179688 32.964844 40.375 33.046875 40.574219 33.046875 C 41.042969 33.046875 41.511719 33.039062 41.976562 33.039062 C 42.179688 33.035156 42.375 32.957031 42.519531 32.816406 C 42.816406 32.519531 42.816406 32.035156 42.519531 31.734375 C 42.371094 31.59375 42.179688 31.515625 41.976562 31.511719 Z M 41.976562 31.511719 "/>
<path style=" stroke:none;fill-rule:nonzero;fill:rgb(12.941176%,9.019608%,8.235294%);fill-opacity:1;" d="M 61.8125 35.8125 L 66.765625 35.8125 C 67.1875 35.8125 67.53125 35.472656 67.53125 35.050781 C 67.53125 34.628906 67.1875 34.285156 66.765625 34.285156 L 61.8125 34.285156 C 61.390625 34.285156 61.046875 34.628906 61.046875 35.050781 C 61.046875 35.472656 61.390625 35.8125 61.8125 35.8125 Z M 61.8125 35.8125 "/>
<path style=" stroke:none;fill-rule:nonzero;fill:rgb(12.941176%,9.019608%,8.235294%);fill-opacity:1;" d="M 61.460938 33.808594 C 61.132812 33.804688 60.816406 33.929688 60.582031 34.164062 C 60.351562 34.394531 60.222656 34.710938 60.226562 35.039062 C 60.207031 35.371094 60.332031 35.695312 60.566406 35.933594 C 60.804688 36.171875 61.125 36.300781 61.460938 36.289062 C 61.796875 36.304688 62.121094 36.175781 62.355469 35.9375 C 62.59375 35.699219 62.714844 35.371094 62.695312 35.039062 C 62.699219 34.710938 62.570312 34.394531 62.339844 34.160156 C 62.105469 33.929688 61.789062 33.804688 61.460938 33.808594 Z M 61.460938 33.808594 "/>
<path style=" stroke:none;fill-rule:nonzero;fill:rgb(12.941176%,9.019608%,8.235294%);fill-opacity:1;" d="M 34.460938 23.925781 L 34.460938 18.972656 C 34.460938 18.550781 34.117188 18.207031 33.695312 18.207031 C 33.273438 18.207031 32.929688 18.550781 32.929688 18.972656 L 32.929688 23.925781 C 32.929688 24.347656 33.273438 24.691406 33.695312 24.691406 C 34.117188 24.691406 34.460938 24.347656 34.460938 23.925781 Z M 34.460938 23.925781 "/>
<path style=" stroke:none;fill-rule:nonzero;fill:rgb(12.941176%,9.019608%,8.235294%);fill-opacity:1;" d="M 30.609375 31.28125 L 30.609375 27.234375 C 30.609375 26.8125 30.265625 26.472656 29.84375 26.472656 C 29.421875 26.472656 29.078125 26.8125 29.078125 27.234375 L 29.078125 31.28125 C 29.078125 31.703125 29.421875 32.046875 29.84375 32.046875 C 30.265625 32.046875 30.609375 31.703125 30.609375 31.28125 Z M 30.609375 31.28125 "/>
<path style=" stroke:none;fill-rule:nonzero;fill:rgb(12.941176%,9.019608%,8.235294%);fill-opacity:1;" d="M 56.433594 44.136719 L 56.433594 38.65625 C 56.433594 38.234375 56.089844 37.890625 55.667969 37.890625 C 55.246094 37.890625 54.90625 38.234375 54.90625 38.65625 L 54.90625 44.136719 C 54.90625 44.558594 55.246094 44.902344 55.667969 44.902344 C 56.089844 44.902344 56.433594 44.558594 56.433594 44.136719 Z M 56.433594 44.136719 "/>
<path style=" stroke:none;fill-rule:nonzero;fill:rgb(12.941176%,9.019608%,8.235294%);fill-opacity:1;" d="M 59.640625 44.136719 L 59.640625 38.65625 C 59.640625 38.234375 59.296875 37.890625 58.875 37.890625 C 58.453125 37.890625 58.109375 38.234375 58.109375 38.65625 L 58.109375 44.136719 C 58.109375 44.558594 58.453125 44.902344 58.875 44.902344 C 59.296875 44.902344 59.640625 44.558594 59.640625 44.136719 Z M 59.640625 44.136719 "/>
<path style=" stroke:none;fill-rule:nonzero;fill:rgb(12.941176%,9.019608%,8.235294%);fill-opacity:1;" d="M 53.226562 44.136719 L 53.226562 38.65625 C 53.226562 38.234375 52.882812 37.890625 52.460938 37.890625 C 52.039062 37.890625 51.699219 38.234375 51.699219 38.65625 L 51.699219 44.136719 C 51.699219 44.558594 52.039062 44.902344 52.460938 44.902344 C 52.882812 44.902344 53.226562 44.558594 53.226562 44.136719 Z M 53.226562 44.136719 "/>
<path style=" stroke:none;fill-rule:nonzero;fill:rgb(12.941176%,9.019608%,8.235294%);fill-opacity:1;" d="M 30.378906 26.664062 L 28.324219 24.613281 C 28.023438 24.3125 27.539062 24.3125 27.242188 24.613281 C 26.945312 24.910156 26.945312 25.394531 27.242188 25.695312 L 29.296875 27.75 C 29.488281 27.945312 29.773438 28.023438 30.039062 27.953125 C 30.304688 27.882812 30.511719 27.671875 30.582031 27.410156 C 30.652344 27.144531 30.574219 26.859375 30.378906 26.667969 Z M 30.378906 26.664062 "/>
<path style=" stroke:none;fill-rule:nonzero;fill:rgb(12.941176%,9.019608%,8.235294%);fill-opacity:1;" d="M 61.070312 24.582031 L 61.070312 20.535156 C 61.070312 20.109375 60.726562 19.769531 60.304688 19.769531 C 59.882812 19.769531 59.539062 20.109375 59.539062 20.535156 L 59.539062 24.582031 C 59.539062 25.003906 59.882812 25.34375 60.304688 25.34375 C 60.726562 25.34375 61.070312 25.003906 61.070312 24.582031 Z M 61.070312 24.582031 "/>
<path style=" stroke:none;fill-rule:nonzero;fill:rgb(12.941176%,9.019608%,8.235294%);fill-opacity:1;" d="M 60.851562 21.042969 L 63.167969 18.726562 C 63.363281 18.535156 63.441406 18.253906 63.371094 17.988281 C 63.300781 17.722656 63.09375 17.515625 62.828125 17.445312 C 62.5625 17.375 62.277344 17.453125 62.085938 17.648438 L 59.769531 19.964844 C 59.476562 20.261719 59.476562 20.742188 59.773438 21.039062 C 60.070312 21.335938 60.550781 21.339844 60.851562 21.042969 Z M 60.851562 21.042969 "/>
<path style=" stroke:none;fill-rule:nonzero;fill:rgb(12.941176%,9.019608%,8.235294%);fill-opacity:1;" d="M 38.394531 20.769531 L 43.171875 15.992188 C 43.367188 15.800781 43.445312 15.519531 43.375 15.253906 C 43.304688 14.988281 43.097656 14.78125 42.832031 14.710938 C 42.566406 14.640625 42.285156 14.71875 42.089844 14.914062 L 37.3125 19.691406 C 37.117188 19.882812 37.039062 20.164062 37.109375 20.429688 C 37.179688 20.695312 37.386719 20.902344 37.652344 20.972656 C 37.917969 21.042969 38.203125 20.96875 38.394531 20.769531 Z M 38.394531 20.769531 "/>
<path style=" stroke:none;fill-rule:nonzero;fill:rgb(12.941176%,9.019608%,8.235294%);fill-opacity:1;" d="M 37.664062 37.382812 L 39.648438 35.398438 C 39.945312 35.097656 39.941406 34.617188 39.644531 34.320312 C 39.347656 34.023438 38.867188 34.023438 38.570312 34.316406 L 36.585938 36.300781 C 36.289062 36.601562 36.292969 37.082031 36.589844 37.378906 C 36.886719 37.675781 37.367188 37.675781 37.664062 37.382812 Z M 37.664062 37.382812 "/>
<path style=" stroke:none;fill-rule:nonzero;fill:rgb(12.941176%,9.019608%,8.235294%);fill-opacity:1;" d="M 62.800781 28.785156 L 64.78125 26.800781 C 64.980469 26.609375 65.054688 26.324219 64.984375 26.0625 C 64.914062 25.796875 64.707031 25.589844 64.441406 25.519531 C 64.175781 25.445312 63.894531 25.523438 63.703125 25.71875 L 61.71875 27.703125 C 61.425781 28.003906 61.425781 28.484375 61.722656 28.78125 C 62.019531 29.078125 62.5 29.078125 62.800781 28.785156 Z M 62.800781 28.785156 "/>
<path style=" stroke:none;fill-rule:nonzero;fill:rgb(12.941176%,9.019608%,8.235294%);fill-opacity:1;" d="M 24.84375 20.78125 C 26.953125 18.652344 29.058594 16.523438 31.199219 14.425781 C 31.902344 13.738281 30.820312 12.65625 30.117188 13.34375 C 27.976562 15.441406 25.871094 17.574219 23.761719 19.699219 C 23.070312 20.398438 24.148438 21.480469 24.84375 20.78125 Z M 24.84375 20.78125 "/>
<path style=" stroke:none;fill-rule:nonzero;fill:rgb(12.941176%,9.019608%,8.235294%);fill-opacity:1;" d="M 28.625 31.488281 C 28.617188 31.804688 28.738281 32.109375 28.960938 32.332031 C 29.183594 32.558594 29.488281 32.683594 29.804688 32.675781 C 30.125 32.695312 30.441406 32.574219 30.667969 32.347656 C 30.898438 32.121094 31.019531 31.808594 31.007812 31.488281 C 31.023438 31.167969 30.902344 30.851562 30.671875 30.625 C 30.441406 30.398438 30.128906 30.28125 29.804688 30.300781 C 29.488281 30.296875 29.183594 30.417969 28.960938 30.644531 C 28.738281 30.867188 28.617188 31.171875 28.625 31.488281 Z M 28.625 31.488281 "/>
<path style=" stroke:none;fill-rule:nonzero;fill:rgb(12.941176%,9.019608%,8.235294%);fill-opacity:1;" d="M 32.503906 18.484375 C 32.496094 18.800781 32.617188 19.105469 32.839844 19.328125 C 33.0625 19.554688 33.367188 19.679688 33.683594 19.671875 C 34.003906 19.691406 34.320312 19.570312 34.546875 19.34375 C 34.777344 19.117188 34.898438 18.804688 34.886719 18.484375 C 34.902344 18.164062 34.78125 17.847656 34.550781 17.621094 C 34.324219 17.394531 34.007812 17.277344 33.683594 17.296875 C 33.367188 17.292969 33.0625 17.414062 32.839844 17.640625 C 32.617188 17.863281 32.496094 18.167969 32.503906 18.484375 Z M 32.503906 18.484375 "/>
</g>
</svg>
